<?xml version="1.0" encoding="UTF-8" standalone="no"?>
<!DOCTYPE svg PUBLIC "-//W3C//DTD SVG 1.1//EN" "http://www.w3.org/Graphics/SVG/1.1/DTD/svg11.dtd">
<svg width="100%" height="100%" viewBox="0 0 573 655" version="1.1" xmlns="http://www.w3.org/2000/svg" xmlns:xlink="http://www.w3.org/1999/xlink" xml:space="preserve" xmlns:serif="http://www.serif.com/" style="fill-rule:evenodd;clip-rule:evenodd;stroke-linejoin:round;stroke-miterlimit:2;">
    <g transform="matrix(1,0,0,1,524,10)">
        <path d="M0,0c1.241,1.007 2.471,2.026 3.688,3.063c7.226,5.613 17.319,7.827 26.019,10.285c0.761,0.215 1.523,0.431 2.307,0.654c1.451,0.404 2.906,0.796 4.365,1.174c4.358,1.193 7.294,2.768 10.621,5.824c-3.3,0.66 -6.6,1.32 -10,2c2.446,4.892 4.14,4.968 9,7c0.33,0.99 0.66,1.98 1,3c-3.703,1.234 -7.15,1.155 -11.008,1.176c-1.644,0.023 -3.289,0.047 -4.933,0.072c-2.569,0.035 -5.137,0.064 -7.706,0.078c-20.644,-0 -20.644,-0 -39.353,7.674c-2.048,4.096 -1.246,8.203 0.062,12.437c3.992,8.201 11.041,13.367 18.18,18.708c4.35,3.27 8.556,6.71 12.758,10.167c0.718,0.587 1.436,1.174 2.175,1.778c5.092,4.198 9.801,8.611 14.137,13.597c0.512,0.582 1.024,1.163 1.551,1.762c1.137,1.551 1.137,1.551 1.137,3.551l2,-0c3,5.75 3,5.75 3,8l2,-0c9.635,22.926 11.497,47.119 2.609,70.687c-1.424,3.179 -2.962,6.245 -4.609,9.313c-0.712,1.394 -0.712,1.394 -1.438,2.816c-5.819,11.118 -12.897,22.051 -21.562,31.184l-2,0c-0.268,0.639 -0.536,1.279 -0.813,1.938c-1.187,2.062 -1.187,2.062 -4.187,3.062l-0,2c-1.354,1.293 -1.354,1.293 -3.262,2.758c-1.05,0.808 -1.05,0.808 -2.121,1.633c-0.761,0.572 -1.521,1.145 -2.305,1.734c-0.776,0.588 -1.553,1.176 -2.353,1.782c-6.427,4.811 -13.047,9.008 -19.959,13.093c-2.906,1.776 -5.797,3.574 -8.688,5.375c-1.044,0.644 -1.044,0.644 -2.109,1.302c-2.622,1.63 -5.012,3.132 -7.203,5.323c-0.34,2.862 -0.34,2.862 -0.344,6.23c-0.028,1.272 -0.056,2.543 -0.085,3.852c-0.011,0.671 -0.022,1.343 -0.034,2.034c-0.461,25.664 -3.424,46.2 -22.537,64.884c-7.603,6.764 -15.66,11.915 -25,16c-1.07,0.501 -2.14,1.003 -3.242,1.52c-21.164,9.309 -44.005,10.553 -66.79,10.957c-2.163,0.04 -4.325,0.091 -6.488,0.144c-1.269,0.025 -2.539,0.05 -3.846,0.076c-3.8,0.317 -7.047,1.016 -10.634,2.303c-1.228,2.233 -1.228,2.233 -2,5c-3.725,6.164 -7.916,9.334 -14,13.063c-5.657,3.494 -10.035,6.558 -14,11.937c-0.643,0.846 -1.286,1.691 -1.949,2.563c-0.574,0.804 -1.147,1.608 -1.738,2.437c-0.873,1.207 -0.873,1.207 -1.762,2.438c-1.681,2.776 -2.635,5.457 -3.551,8.562c11.009,-3.15 21.931,-6.537 32.828,-10.057c6.121,-1.975 12.254,-3.901 18.404,-5.785c3.686,-1.133 7.369,-2.278 11.05,-3.426c3.606,-1.125 7.212,-2.246 10.819,-3.368c1.846,-0.575 3.692,-1.151 5.537,-1.728c44.728,-13.977 44.728,-13.977 55.674,-9.198c7.946,4.797 12.716,12.902 17.34,20.679c2.901,4.858 6.006,9.583 9.098,14.321c0.555,0.852 1.11,1.704 1.682,2.583c0.533,0.817 1.066,1.633 1.615,2.475c0.507,0.778 1.014,1.555 1.536,2.356c1.23,1.864 2.487,3.704 3.753,5.543c1.888,2.955 2.505,5.111 2.664,8.605c-2,2 -2,2 -4.938,2.062c-8.334,-1.461 -16.106,-8.37 -22.062,-14.062l-0,-2c-0.99,-0.33 -1.98,-0.66 -3,-1c-4,-4.457 -4,-4.457 -4,-7c-1.65,0.66 -3.3,1.32 -5,2c0.084,0.927 0.168,1.854 0.254,2.809c0.102,1.197 0.204,2.395 0.308,3.628c0.105,1.195 0.209,2.39 0.317,3.622c0.04,0.97 0.08,1.941 0.121,2.941c-0.33,0.33 -0.66,0.66 -1,1c-4.611,-0 -6.478,-0.49 -9.813,-3.75c-2.833,-4.435 -3.191,-9.314 -3.73,-14.457c-0.2,-2.925 -0.2,-2.925 -2.457,-4.793c-7.999,-0.972 -15.234,0.454 -22.813,2.875c-1.51,0.461 -1.51,0.461 -3.051,0.931c-3.386,1.043 -6.762,2.115 -10.136,3.194c-1.273,0.406 -2.547,0.811 -3.82,1.216c-7.909,2.522 -15.806,5.083 -23.699,7.653c-4.613,1.499 -9.232,2.98 -13.856,4.443c-0.736,0.234 -1.473,0.467 -2.231,0.707c-5.835,1.834 -11.707,3.529 -17.585,5.217c-4.784,1.398 -9.368,3.056 -13.926,5.065c-1.883,0.699 -1.883,0.699 -4.883,0.699l0,2c-13.06,7.118 -13.06,7.118 -20,7c-2.541,-0.777 -4.625,-1.763 -7,-3l0,-2c-0.99,-0.33 -1.98,-0.66 -3,-1c-2.938,-4.539 -3.481,-8.588 -3.375,-13.875c0.007,-0.706 0.013,-1.412 0.02,-2.139c0.137,-5.334 1.025,-9.234 3.355,-13.986c0.33,-0.99 0.66,-1.98 1,-3l2,-0c0.086,-0.606 0.173,-1.212 0.262,-1.836c1.546,-9.221 5.474,-16.621 10.722,-24.277c1.216,-2.259 1.617,-4.365 2.016,-6.887c-5.185,1.692 -10.359,3.411 -15.524,5.162c-1.572,0.532 -3.146,1.06 -4.722,1.582c-8.574,2.86 -15.896,6.104 -22.99,11.849c-3.091,2.466 -6.256,4.835 -9.406,7.224c-2.776,2.106 -5.546,4.22 -8.315,6.335c-3.88,2.963 -7.766,5.915 -11.668,8.848c-0.9,0.679 -1.8,1.359 -2.727,2.059c-1.862,1.365 -3.756,2.687 -5.671,3.976c-5.923,4.034 -9.608,7.136 -11.977,13.965c-3.307,9.398 -9.499,16.074 -18.375,20.625c-3.197,1.495 -5.09,2.375 -8.625,2.375c-0.33,0.99 -0.66,1.98 -1,3l-2,0c-0.186,0.66 -0.371,1.32 -0.563,2c-1.759,3.672 -4.137,6.25 -6.878,9.23c-1.63,1.698 -1.63,1.698 -2.559,3.77l-2,0c-0.268,0.804 -0.536,1.609 -0.813,2.438c-0.391,0.845 -0.783,1.691 -1.187,2.562c-0.99,0.33 -1.98,0.66 -3,1c-0.677,1.662 -1.341,3.33 -2,5c-1.625,2.267 -3.262,4.45 -5,6.625c-3.625,4.594 -3.625,4.594 -7,9.375l-2,0c-0.99,2.475 -0.99,2.475 -2,5l-2,0c-0.309,0.784 -0.619,1.567 -0.938,2.375c-1.062,2.625 -1.062,2.625 -2.062,4.625l-2,0c-0.99,2.475 -0.99,2.475 -2,5l-2,0c-0.367,1.063 -0.367,1.063 -0.742,2.148c-1.428,3.237 -3.219,5.68 -5.383,8.477c-0.813,1.063 -1.626,2.127 -2.438,3.191c-0.408,0.533 -0.817,1.065 -1.238,1.614c-9.405,12.263 -9.405,12.263 -17.199,25.57l-2,-0c-0.25,0.692 -0.5,1.384 -0.758,2.098c-1.427,3.334 -3.197,6.264 -5.117,9.339c-0.678,1.092 -1.356,2.184 -2.055,3.309c-0.683,1.074 -1.366,2.148 -2.07,3.254c-0.668,1.056 -1.335,2.111 -2.023,3.199c-1.776,2.516 -3.359,4.248 -5.727,6.176c-7.798,6.599 -16.623,14.371 -21.25,23.625l-2,-0c-0.268,0.887 -0.536,1.774 -0.813,2.687c-1.116,3.116 -2.409,5.539 -4.187,8.313c-1.806,2.859 -3.27,5.61 -4.5,8.75c-0.743,1.609 -0.743,1.609 -1.5,3.25c-0.99,0.33 -1.98,0.66 -3,1c-4.261,-3.848 -4.85,-5.99 -5.273,-11.652c-0.506,-15.099 4.09,-27.463 13.648,-39.286c1.934,-2.017 1.934,-2.017 1.625,-5.062c-0.687,0.107 -1.374,0.214 -2.082,0.324c-0.901,0.12 -1.802,0.24 -2.731,0.363c-0.893,0.128 -1.786,0.256 -2.707,0.387c-2.48,-0.074 -2.48,-0.074 -4.308,-1.418c-1.172,-1.656 -1.172,-1.656 -1.11,-3.844c2.964,-8.891 7.227,-14.835 15.704,-19.253c6.07,-2.662 12.156,-4.443 18.64,-5.786c2.761,-0.823 4.36,-2 6.594,-3.773l2,0c0.263,-0.737 0.526,-1.475 0.797,-2.234c1.207,-2.776 2.539,-4.688 4.453,-7.016c3.121,-3.876 5.855,-7.878 8.488,-12.098c0.625,-0.818 0.625,-0.818 1.262,-1.652l2,0c0.254,-0.708 0.508,-1.415 0.77,-2.145c1.348,-3.128 3.003,-5.725 4.917,-8.543c0.708,-1.044 1.416,-2.088 2.145,-3.164c2.555,-3.71 5.124,-7.409 7.723,-11.089c1.172,-1.67 2.313,-3.362 3.445,-5.059l2,0c0.116,-0.576 0.232,-1.152 0.352,-1.746c0.698,-2.429 1.67,-4.188 3.023,-6.317c0.42,-0.671 0.84,-1.343 1.273,-2.035c1.352,-1.902 1.352,-1.902 2.758,-3.267c1.739,-1.783 3.059,-3.632 4.449,-5.697c0.537,-0.792 1.073,-1.584 1.626,-2.4c0.563,-0.837 1.126,-1.675 1.707,-2.538c3.706,-5.486 7.44,-10.91 11.437,-16.188c3.598,-4.903 5.456,-9.426 7.035,-15.246c2.607,-9.36 6.42,-15.796 14.34,-21.566c2.572,-1.38 5.236,-2.462 7.938,-3.563c8.971,-3.934 15.932,-9.488 23.271,-15.89c2.584,-2.232 5.25,-4.351 7.916,-6.485c2.97,-2.42 5.77,-4.874 8.438,-7.625c0.804,-0.804 1.608,-1.608 2.437,-2.437l2,-0c0.66,-1.32 1.32,-2.64 2,-4l2,-0c0.263,-0.583 0.526,-1.165 0.797,-1.766c1.26,-2.34 2.659,-4.029 4.453,-5.984c2.473,-2.778 4.89,-5.575 7.188,-8.5c0.493,-0.624 0.987,-1.248 1.496,-1.891c1.398,-2.08 1.398,-2.08 1.066,-5.859c-1.12,-0.294 -1.12,-0.294 -2.262,-0.594c-3.324,-0.879 -6.646,-1.767 -9.967,-2.661c-2.018,-0.542 -4.035,-1.083 -6.054,-1.623c-36.854,-9.882 -36.854,-9.882 -53.717,-18.122c-1.155,-0.547 -2.31,-1.093 -3.5,-1.656c-5.999,-2.878 -11.644,-5.775 -16.754,-10.082c-6.395,-4.621 -13.763,-3.807 -21.205,-2.788c-3.78,0.65 -7.534,1.378 -11.291,2.151c-0.665,0.136 -1.33,0.272 -2.015,0.412c-15.173,3.134 -27.626,8.095 -40.718,16.444c-5.763,3.558 -5.763,3.558 -10.076,3.335c-1.208,-0.404 -1.208,-0.404 -2.441,-0.816c-2.757,-8.272 -0.697,-16.079 2.125,-24.055c0.842,-2.833 1.048,-5.013 0.875,-7.945c-6.538,0.123 -9.688,3.912 -14.063,8.25c-0.694,0.669 -1.388,1.338 -2.103,2.027c-3.653,3.532 -7.251,7.12 -10.834,10.723c-1,1 -1,1 -3.375,1.25c-2.625,-0.25 -2.625,-0.25 -4.375,-1.563c-3.371,-4.551 -2.811,-10.327 -2.25,-15.687c3.419,-15.419 3.419,-15.419 6,-18c0.041,-1.666 0.043,-3.334 0,-5c-7.678,0.132 -13.141,2.814 -19.766,6.406c-2.873,1.416 -5.066,2.279 -8.234,2.594c-0.66,-0.33 -1.32,-0.66 -2,-1c-1.345,-17.489 10.42,-33.216 21,-46c15.623,-15.805 36.043,-25.296 58.313,-25.438c6.305,0.068 12.045,0.911 18.117,2.704c3.512,1.003 6.94,1.385 10.57,1.734c-0.168,-0.687 -0.335,-1.374 -0.508,-2.082c-0.305,-1.352 -0.305,-1.352 -0.617,-2.731c-0.209,-0.893 -0.418,-1.786 -0.633,-2.707c-0.242,-2.48 -0.242,-2.48 1.758,-5.48c1.895,-0.365 1.895,-0.365 4.237,-0.353c0.881,-0.004 1.762,-0.008 2.669,-0.012c0.961,0.01 1.921,0.019 2.91,0.029c2.054,-0.008 4.108,-0.018 6.161,-0.028c1.077,-0.001 2.154,-0.002 3.263,-0.003c23.096,-0.057 45.432,-0.7 66.76,-10.633c1.318,-0.593 2.635,-1.185 3.953,-1.777c7.088,-3.23 14.011,-6.702 20.86,-10.411c33.85,-18.207 70.198,-33.092 108.687,-37.062c0.776,-0.08 1.552,-0.16 2.351,-0.243c42.591,-3.883 77.232,9.328 112.126,32.223c6.11,3.834 12.013,4.346 19.132,2.817c1.262,-0.365 2.524,-0.731 3.786,-1.098c4.96,-1.058 10.491,-0.999 15.45,0.044c14.258,2.721 28.361,1.399 40.6,-6.36c9.978,-6.838 18.284,-16.001 21.055,-28.133c2.062,-18.066 1.019,-31.765 -10.266,-46.672c-4.709,-5.848 -10.516,-10.183 -16.734,-14.328l-0,-2c-0.598,-0.103 -1.196,-0.206 -1.813,-0.313c-2.547,-0.8 -3.336,-1.8 -5.187,-3.687c-1.277,-0.978 -2.57,-1.935 -3.875,-2.875c-8.526,-6.328 -8.526,-6.328 -10.125,-11.125c-0.599,-0.296 -1.199,-0.593 -1.816,-0.898c-9.481,-4.783 -15.907,-19.482 -19.184,-29.102c-5.228,-15.885 -4.325,-34.027 3.25,-49.125c3.533,-5.582 8.091,-9.763 14.187,-12.313c13.278,-2.096 22.464,2.244 33.563,9.438Z" style="fill-rule:nonzero;"/>
    </g>
</svg>
