<?xml version="1.0" encoding="utf-8"?>
<!-- Generator: Adobe Illustrator 26.4.1, SVG Export Plug-In . SVG Version: 6.00 Build 0)  -->
<svg version="1.1" id="b" xmlns="http://www.w3.org/2000/svg" xmlns:xlink="http://www.w3.org/1999/xlink" x="0px" y="0px"
	 viewBox="0 0 183 50" enable-background="new 0 0 183 50" xml:space="preserve">
<g>
	<rect fill="none" width="183" height="50"/>
	<path fill="#3F2A56" d="M83.9,19.2c0,6.3-4.5,10.5-11.2,10.5h-5.3v9.6h-7.1V9.2H73C79.5,9.2,83.9,13.2,83.9,19.2z M76.5,19.5
		c0-2.6-1.7-4.4-4.3-4.4h-4.9v8.8h4.9C75,23.9,76.5,22.1,76.5,19.5z"/>
	<path fill="#3F2A56" d="M106.7,30.7H91.5c0.4,2.3,1.6,3.7,4.2,3.7c1.9,0,3.4-0.8,4.5-2l5.3,2.6c-1.9,2.9-5.4,4.8-9.7,4.8
		c-7,0-11.6-4.5-11.6-11.3c0-6.8,4.5-11.7,11.3-11.7c6.8,0,11.3,4.4,11.3,11.1C106.8,28.8,106.8,29.9,106.7,30.7z M91.6,26h8.1
		c-0.4-2.5-1.8-3.9-4.1-3.9C93.2,22.2,92,23.5,91.6,26z"/>
	<path fill="#3F2A56" d="M133.2,28.1c0,6.9-4.7,11.6-10.5,11.6c-2.9,0-5.1-1.1-6.6-3v11.6h-6.9V17.1h6.6l0.1,2.7
		c1.5-2,3.7-3.1,6.7-3.1C128.5,16.7,133.1,21.3,133.2,28.1L133.2,28.1z M126.1,28.2c0-3.3-2-5.5-5-5.5c-3,0-5,2.2-5,5.6
		c0,3.3,2,5.6,5,5.6C124,33.8,126.1,31.6,126.1,28.2L126.1,28.2z"/>
	<path fill="#3F2A56" d="M159.6,28.1c0,6.9-4.7,11.6-10.5,11.6c-2.9,0-5.1-1.1-6.6-3v11.6h-6.9V17.1h6.6l0.1,2.7
		c1.5-2,3.7-3.1,6.7-3.1C154.9,16.7,159.6,21.3,159.6,28.1L159.6,28.1z M152.5,28.2c0-3.3-2-5.5-5-5.5c-3,0-5,2.2-5,5.6
		c0,3.3,2,5.6,5,5.6C150.5,33.8,152.5,31.6,152.5,28.2L152.5,28.2z"/>
	<path fill="#3F2A56" d="M183,17.1V37c0,7-5,11.7-12.6,11.7c-3.5,0-6.6-0.9-8.7-2.7l1.5-5.4c2.2,1.7,4.5,2.2,7.1,2.2
		c3.4,0,5.8-2.2,5.9-5.6c-1.6,1.7-3.8,2.5-6.1,2.5c-4.9,0-8.2-3.5-8.2-8.7V17.1h6.9V30c0,2.3,1.5,3.8,3.7,3.8c2.3,0,3.7-1.5,3.7-3.8
		V17.1L183,17.1L183,17.1z"/>
	<path fill="#3F2A56" d="M24.9,0C11.1,0,0,11.2,0,25s11.1,25,24.9,25s24.9-11.2,24.9-25S38.6,0,24.9,0z M24.9,36.2
		c0,3.3-2.6,5.9-5.9,5.9c-3.3,0-5.9-2.7-5.9-5.9c0-3.3,2.6-5.9,5.9-5.9C22.3,30.3,24.9,32.9,24.9,36.2z M30.1,28.9H14.4
		c0-5.1,4.1-9.2,9.2-9.2h15.7C39.3,24.8,35.2,28.9,30.1,28.9z M39.3,18.4H14.4l2.6-9.2h13.1C35.2,9.2,39.3,13.3,39.3,18.4z"/>
</g>
</svg>
